<svg id="Layer_1" viewBox="0 0 24 24" xmlns="http://www.w3.org/2000/svg" data-name="Layer 1"><path d="m24 16.499c0 .276-.224.5-.5.5-.057 0-.122-.009-.182-.013l-.45 3.15c-.315 2.203-2.23 3.863-4.455 3.863h-.759c-.276 0-.5-.224-.5-.5s.224-.5.5-.5h.759c1.73 0 3.22-1.292 3.465-3.005l.458-3.204c-2.145-.665-5.201-2.969-6.218-6.791h-3.736c-.58 0-1.131.251-1.511.69-.445.5-.571 1.186-.435 1.831.039.273-.151.526-.425.565-.276.038-.526-.151-.565-.425-.185-.931.038-1.908.67-2.626.57-.658 1.396-1.035 2.266-1.035h8.618c.87 0 1.695.377 2.266 1.034.57.658.827 1.529.704 2.39l-.164 1.146c-.038.275-.299.464-.566.424-.272-.039-.463-.292-.424-.566l.164-1.146c.082-.574-.089-1.155-.47-1.593-.38-.438-.93-.689-1.51-.689h-3.846c1.19 3.958 4.91 6 6.346 6 .276 0 .5.224.5.5zm-17 5v1c0 .827-.673 1.5-1.5 1.5h-4c-.827 0-1.5-.673-1.5-1.5v-1c0-.827.673-1.5 1.5-1.5h4c.827 0 1.5.673 1.5 1.5zm-1 0c0-.276-.224-.5-.5-.5h-4c-.276 0-.5.224-.5.5v1c0 .276.224.5.5.5h4c.276 0 .5-.224.5-.5zm9 0v1c0 .827-.673 1.5-1.5 1.5h-4c-.827 0-1.5-.673-1.5-1.5v-1c0-.827.673-1.5 1.5-1.5h4c.827 0 1.5.673 1.5 1.5zm-1 0c0-.276-.225-.5-.5-.5h-4c-.276 0-.5.224-.5.5v1c0 .276.224.5.5.5h4c.275 0 .5-.224.5-.5zm-8.5-6.5h4c.827 0 1.5.673 1.5 1.5v1c0 .827-.673 1.5-1.5 1.5h-4c-.827 0-1.5-.673-1.5-1.5v-1c0-.827.673-1.5 1.5-1.5zm-.5 2.5c0 .276.224.5.5.5h4c.276 0 .5-.224.5-.5v-1c0-.276-.224-.5-.5-.5h-4c-.276 0-.5.224-.5.5zm-3.342.5h.034c.275-.019.484-.256.466-.532-.104-1.58-.158-3.251-.158-4.967 0-3.964.285-6.923.523-8.707.188-1.403 1.305-2.463 2.719-2.577 3.535-.286 6.98-.286 10.515 0 1.413.114 2.532 1.179 2.721 2.588.114.856.212 1.777.291 2.736.022.276.27.479.539.458.275-.023.479-.264.457-.539-.08-.977-.18-1.915-.296-2.788-.251-1.88-1.744-3.3-3.632-3.453-3.587-.29-7.087-.29-10.675 0-1.887.153-3.38 1.568-3.63 3.442-.243 1.814-.532 4.82-.532 8.839 0 1.738.054 3.431.16 5.033.018.264.237.467.499.467z"/></svg>