<?xml version="1.0" encoding="UTF-8" standalone="no"?>
<svg
   xmlns:dc="http://purl.org/dc/elements/1.1/"
   xmlns:cc="http://creativecommons.org/ns#"
   xmlns:rdf="http://www.w3.org/1999/02/22-rdf-syntax-ns#"
   xmlns:svg="http://www.w3.org/2000/svg"
   xmlns="http://www.w3.org/2000/svg"
   xmlns:sodipodi="http://sodipodi.sourceforge.net/DTD/sodipodi-0.dtd"
   xmlns:inkscape="http://www.inkscape.org/namespaces/inkscape"
   id="arrow-circle-down"
   viewBox="0 0 24 24"
   width="512"
   height="512"
   version="1.1"
   sodipodi:docname="arrows_dark.svg"
   inkscape:version="0.92.4 (5da689c313, 2019-01-14)">
  <metadata
     id="metadata9">
    <rdf:RDF>
      <cc:Work
         rdf:about="">
        <dc:format>image/svg+xml</dc:format>
        <dc:type
           rdf:resource="http://purl.org/dc/dcmitype/StillImage" />
        <dc:title></dc:title>
      </cc:Work>
    </rdf:RDF>
  </metadata>
  <defs
     id="defs7" />
  <sodipodi:namedview
     pagecolor="#ffffff"
     bordercolor="#666666"
     borderopacity="1"
     objecttolerance="10"
     gridtolerance="10"
     guidetolerance="10"
     inkscape:pageopacity="0"
     inkscape:pageshadow="2"
     inkscape:window-width="1366"
     inkscape:window-height="697"
     id="namedview5"
     showgrid="false"
     inkscape:zoom="0.921875"
     inkscape:cx="46.449105"
     inkscape:cy="27.607174"
     inkscape:window-x="-8"
     inkscape:window-y="-8"
     inkscape:window-maximized="1"
     inkscape:current-layer="arrow-circle-down" />
  <path
     d="m 23.34543,10.191143 c -0.233,-0.2629997 -0.462,-0.5130001 -0.619,-0.6700001 l -2.245,-2.2830003 a 1,1 0 0 0 -1.426,1.4 l 2.251,2.2900004 0.008,0.01 h -8.32 V 2.6831426 l 2.233,2.194 a 1,1 0 0 0 1.4,-1.426 l -2.279,-2.24 c -0.163,-0.163 -0.413,-0.39099996 -0.674,-0.62299997 a 2.575,2.575 0 0 0 -1.652,-0.64400004 0.28,0.28 0 0 0 -0.028,-0.006 h -0.011 A 2.584,2.584 0 0 0 10.247429,0.58514263 C 9.9844294,0.81814264 9.7344294,1.0471426 9.5774294,1.2041426 l -2.283,2.247 a 1,1 0 1 0 1.4,1.426 l 2.2900006,-2.251 0.01,-0.008 V 10.938143 H 2.6744294 l 0.015,-0.015 2.244,-2.2850004 a 1,1 0 1 0 -1.426,-1.4 l -2.239,2.2770003 c -0.163,0.163 -0.39200001,0.4130004 -0.62400001,0.6750001 a 2.581,2.581 0 0 0 -0.65,1.737 v 0.011 c 0,0.01 0.004999996,0.019 0.005999996,0.029 a 2.573,2.573 0 0 0 0.644000004,1.653 c 0.233,0.262 0.46100001,0.512 0.61800001,0.67 l 2.245,2.284 a 1,1 0 0 0 1.426,-1.4 l -2.195,-2.236 H 10.99443 v 8.32 l -0.015,-0.014 -2.2850006,-2.244 a 1,1 0 1 0 -1.4,1.425 l 2.278,2.239 c 0.163,0.163 0.413,0.391 0.6749996,0.624 a 2.587,2.587 0 0 0 3.430001,0 c 0.262,-0.233 0.511,-0.46 0.669,-0.619 l 2.284,-2.244 a 1,1 0 1 0 -1.4,-1.425 l -2.236,2.194 v -8.256 h 8.256 l -2.2,2.233 a 1,1 0 1 0 1.426,1.4 l 2.239,-2.279 c 0.163,-0.163 0.391,-0.413 0.624,-0.675 a 2.589,2.589 0 0 0 0.006,-3.426 z"
     id="path2"
     inkscape:connector-curvature="0"
     style="fill:#90a1b9;fill-opacity:1" />
  <path
     style="stroke-width:0.99999994;fill:#000000;fill-opacity:0"
     inkscape:connector-curvature="0"
     d="m 48.675227,10.151288 c -0.233001,-0.2629998 -0.462,-0.5130001 -0.619001,-0.67 l -2.245,-2.283 a 0.99999998,0.99999998 0 0 0 -1.425999,1.4000002 l 2.250999,2.2899998 0.008,0.01 h -8.32 V 2.6432881 l 2.233,2.1939999 a 0.99999998,0.99999998 0 0 0 1.399999,-1.426 L 39.678227,1.1712881 c -0.163001,-0.163 -0.413001,-0.39100001 -0.674001,-0.62300001 a 2.5749999,2.5749999 0 0 0 -1.651999,-0.644 0.27999999,0.27999999 0 0 0 -0.028,-0.006 h -0.011 a 2.5839999,2.5839999 0 0 0 -1.736,0.647 c -0.263001,0.233 -0.513001,0.46200001 -0.67,0.61900001 l -2.283,2.2469999 a 0.99999998,0.99999998 0 1 0 1.399999,1.426 l 2.290001,-2.2509999 0.01,-0.008 v 8.3199999 h -8.320001 l 0.015,-0.015 2.244001,-2.2849998 A 0.99999998,0.99999998 0 1 0 28.837226,7.198288 l -2.239,2.277 c -0.163,0.1629999 -0.391999,0.4130002 -0.623999,0.675 a 2.5809999,2.5809999 0 0 0 -0.65,1.737 v 0.011 c 0,0.01 0.005,0.019 0.006,0.029 a 2.573,2.573 0 0 0 0.644,1.652999 c 0.233,0.262 0.460999,0.512 0.617999,0.67 l 2.245,2.284 a 0.99999998,0.99999998 0 0 0 1.426001,-1.4 l -2.195001,-2.236 h 8.256001 v 8.32 l -0.015,-0.014 -2.285001,-2.244 a 0.99999998,0.99999998 0 1 0 -1.399999,1.425 l 2.277999,2.239 c 0.163,0.163 0.413001,0.391 0.675001,0.624 a 2.5869999,2.5869999 0 0 0 3.429999,0 c 0.262,-0.233 0.511,-0.46 0.669,-0.619 l 2.284,-2.244 a 0.99999998,0.99999998 0 1 0 -1.399999,-1.425 l -2.236,2.194 v -8.256 h 8.255999 l -2.2,2.233 a 0.99999998,0.99999998 0 1 0 1.426,1.4 l 2.239001,-2.279 c 0.162999,-0.163 0.390999,-0.413 0.624,-0.675 a 2.589,2.589 0 0 0 0.006,-3.425999 z"
     id="path2-1" />
</svg>
