<?xml version="1.0" encoding="UTF-8" standalone="no"?>
<svg
   xmlns:dc="http://purl.org/dc/elements/1.1/"
   xmlns:cc="http://creativecommons.org/ns#"
   xmlns:rdf="http://www.w3.org/1999/02/22-rdf-syntax-ns#"
   xmlns:svg="http://www.w3.org/2000/svg"
   xmlns="http://www.w3.org/2000/svg"
   xmlns:sodipodi="http://sodipodi.sourceforge.net/DTD/sodipodi-0.dtd"
   xmlns:inkscape="http://www.inkscape.org/namespaces/inkscape"
   id="Layer_1"
   data-name="Layer 1"
   viewBox="0 0 24 24"
   version="1.1"
   sodipodi:docname="build-alt.svg"
   inkscape:version="0.92.4 (5da689c313, 2019-01-14)">
  <metadata
     id="metadata9">
    <rdf:RDF>
      <cc:Work
         rdf:about="">
        <dc:format>image/svg+xml</dc:format>
        <dc:type
           rdf:resource="http://purl.org/dc/dcmitype/StillImage" />
      </cc:Work>
    </rdf:RDF>
  </metadata>
  <defs
     id="defs7" />
  <sodipodi:namedview
     pagecolor="#ffffff"
     bordercolor="#666666"
     borderopacity="1"
     objecttolerance="10"
     gridtolerance="10"
     guidetolerance="10"
     inkscape:pageopacity="0"
     inkscape:pageshadow="2"
     inkscape:window-width="1366"
     inkscape:window-height="697"
     id="namedview5"
     showgrid="false"
     inkscape:zoom="9.8333333"
     inkscape:cx="-4.5254238"
     inkscape:cy="12"
     inkscape:window-x="-8"
     inkscape:window-y="-8"
     inkscape:window-maximized="1"
     inkscape:current-layer="Layer_1" />
  <path
     d="m20,0h-5.5c-.827,0-1.5.673-1.5,1.5v4c0,.827.673,1.5,1.5,1.5h8c.827,0,1.5-.673,1.5-1.5v-1.5c0-2.206-1.794-4-4-4Zm3,5.5c0,.276-.225.5-.5.5h-8c-.275,0-.5-.224-.5-.5V1.5c0-.276.225-.5.5-.5h5.5c1.654,0,3,1.346,3,3v1.5Zm-.5,5.5h-14.5v-4.5c0-.827-.673-1.5-1.5-1.5h-2.5C1.794,5,0,6.794,0,9v11c0,2.206,1.794,4,4,4h16c2.206,0,4-1.794,4-4v-7.5c0-.827-.673-1.5-1.5-1.5Zm.5,1.5v4.5h-10.5v-5h10c.275,0,.5.224.5.5Zm-7,5.5v5h-8v-5h8ZM1,9c0-1.654,1.346-3,3-3h2.5c.275,0,.5.224.5.5v4.5H1v-2Zm10.5,3v5H1v-5h10.5ZM1,20v-2h6v5h-3c-1.654,0-3-1.346-3-3Zm19,3h-3v-5h6v2c0,1.654-1.346,3-3,3Z"
     id="path2"
     style="fill:#f1f5f9;fill-opacity:1;stroke-width:1;stroke-miterlimit:4;stroke-dasharray:none;stroke:#f1f5f9;stroke-opacity:1" />
</svg>
