<?xml version="1.0" encoding="UTF-8" standalone="no"?>
<svg
   xmlns:dc="http://purl.org/dc/elements/1.1/"
   xmlns:cc="http://creativecommons.org/ns#"
   xmlns:rdf="http://www.w3.org/1999/02/22-rdf-syntax-ns#"
   xmlns:svg="http://www.w3.org/2000/svg"
   xmlns="http://www.w3.org/2000/svg"
   xmlns:sodipodi="http://sodipodi.sourceforge.net/DTD/sodipodi-0.dtd"
   xmlns:inkscape="http://www.inkscape.org/namespaces/inkscape"
   id="Layer_1"
   data-name="Layer 1"
   viewBox="0 0 24 24"
   version="1.1"
   sodipodi:docname="dewpoint.svg"
   inkscape:version="0.92.4 (5da689c313, 2019-01-14)">
  <metadata
     id="metadata11">
    <rdf:RDF>
      <cc:Work
         rdf:about="">
        <dc:format>image/svg+xml</dc:format>
        <dc:type
           rdf:resource="http://purl.org/dc/dcmitype/StillImage" />
      </cc:Work>
    </rdf:RDF>
  </metadata>
  <defs
     id="defs9" />
  <sodipodi:namedview
     pagecolor="#ffffff"
     bordercolor="#666666"
     borderopacity="1"
     objecttolerance="10"
     gridtolerance="10"
     guidetolerance="10"
     inkscape:pageopacity="0"
     inkscape:pageshadow="2"
     inkscape:window-width="716"
     inkscape:window-height="480"
     id="namedview7"
     showgrid="false"
     inkscape:zoom="9.8333333"
     inkscape:cx="12"
     inkscape:cy="12"
     inkscape:window-x="0"
     inkscape:window-y="0"
     inkscape:window-maximized="0"
     inkscape:current-layer="Layer_1" />
  <path
     d="M19.421,1c-1.815,0-2.698,.875-2.698,2.675s.883,2.675,2.698,2.675,2.698-.875,2.698-2.675-.883-2.675-2.698-2.675Zm0,4.35c-1.102,0-1.698-.267-1.698-1.675s.597-1.675,1.698-1.675,1.698,.267,1.698,1.675-.597,1.675-1.698,1.675Z"
     id="path2"
     style="fill:#f1f5f9;fill-opacity:1" />
  <path
     d="M10.584,4.158c-.153-.085-.341-.082-.493,.006-.332,.194-8.116,4.81-8.21,10.398,.129,4.277,4.237,8.378,8.469,8.437,4.219-.059,8.455-4.213,8.455-8.461,0-5.645-7.889-10.198-8.221-10.381Zm-.234,17.842c-3.657-.051-7.357-3.75-7.469-7.444,.075-4.487,6.159-8.554,7.469-9.377,1.312,.785,7.361,4.659,7.455,9.366-.119,3.713-3.814,7.404-7.455,7.455Z"
     id="path4"
     style="fill:#f1f5f9;fill-opacity:1" />
</svg>
