<?xml version="1.0" encoding="UTF-8" standalone="no"?>
<svg
   xmlns:dc="http://purl.org/dc/elements/1.1/"
   xmlns:cc="http://creativecommons.org/ns#"
   xmlns:rdf="http://www.w3.org/1999/02/22-rdf-syntax-ns#"
   xmlns:svg="http://www.w3.org/2000/svg"
   xmlns="http://www.w3.org/2000/svg"
   xmlns:sodipodi="http://sodipodi.sourceforge.net/DTD/sodipodi-0.dtd"
   xmlns:inkscape="http://www.inkscape.org/namespaces/inkscape"
   id="Layer_1"
   data-name="Layer 1"
   width="512"
   height="512"
   viewBox="0 0 24 24"
   version="1.1"
   sodipodi:docname="heat.svg"
   inkscape:version="0.92.4 (5da689c313, 2019-01-14)">
  <metadata
     id="metadata9">
    <rdf:RDF>
      <cc:Work
         rdf:about="">
        <dc:format>image/svg+xml</dc:format>
        <dc:type
           rdf:resource="http://purl.org/dc/dcmitype/StillImage" />
      </cc:Work>
    </rdf:RDF>
  </metadata>
  <defs
     id="defs7" />
  <sodipodi:namedview
     pagecolor="#ffffff"
     bordercolor="#666666"
     borderopacity="1"
     objecttolerance="10"
     gridtolerance="10"
     guidetolerance="10"
     inkscape:pageopacity="0"
     inkscape:pageshadow="2"
     inkscape:window-width="716"
     inkscape:window-height="480"
     id="namedview5"
     showgrid="false"
     inkscape:zoom="0.4609375"
     inkscape:cx="256"
     inkscape:cy="256"
     inkscape:window-x="0"
     inkscape:window-y="0"
     inkscape:window-maximized="0"
     inkscape:current-layer="Layer_1" />
  <path
     d="M20.5,24c-.042,0-.086-.005-.129-.017-.267-.071-.426-.345-.354-.612,.114-.428,.243-.826,.369-1.218,.315-.98,.614-1.906,.614-3.16,0-2.766-1.029-4.801-1.927-6.265-.965-1.576-2.073-3.771-2.073-6.788,0-1.884,.772-4.482,1.294-5.646,.113-.252,.409-.365,.661-.251,.252,.113,.364,.409,.251,.661-.421,.938-1.206,3.436-1.206,5.236,0,2.766,1.029,4.801,1.927,6.265,.965,1.576,2.073,3.771,2.073,6.788,0,1.411-.337,2.456-.663,3.467-.121,.375-.244,.758-.354,1.168-.06,.224-.262,.371-.483,.371Zm-7,0c-.042,0-.086-.005-.129-.017-.267-.071-.426-.345-.354-.612,.114-.428,.243-.826,.369-1.218,.315-.98,.614-1.906,.614-3.16,0-2.766-1.029-4.801-1.927-6.265-.965-1.576-2.073-3.771-2.073-6.788,0-1.884,.772-4.482,1.294-5.646,.112-.252,.409-.365,.661-.251,.252,.113,.364,.409,.251,.661-.421,.938-1.206,3.436-1.206,5.236,0,2.766,1.029,4.801,1.927,6.265,.965,1.576,2.073,3.771,2.073,6.788,0,1.411-.337,2.456-.663,3.467-.121,.375-.244,.758-.354,1.168-.06,.224-.262,.371-.483,.371Zm-7,0c-.042,0-.086-.005-.129-.017-.267-.071-.426-.345-.354-.612,.114-.428,.243-.826,.369-1.218,.315-.98,.614-1.906,.614-3.16,0-2.766-1.029-4.801-1.927-6.265-.965-1.576-2.073-3.771-2.073-6.788,0-1.884,.772-4.482,1.294-5.646,.112-.252,.41-.365,.661-.251,.252,.113,.364,.409,.251,.661-.421,.938-1.206,3.436-1.206,5.236,0,2.766,1.029,4.801,1.927,6.265,.965,1.576,2.073,3.771,2.073,6.788,0,1.411-.337,2.456-.663,3.467-.121,.375-.244,.758-.354,1.168-.06,.224-.262,.371-.483,.371Z"
     id="path2"
     style="fill:#f1f5f9;fill-opacity:1" />
</svg>
