<?xml version="1.0" encoding="UTF-8" standalone="no"?>
<svg
   xmlns:dc="http://purl.org/dc/elements/1.1/"
   xmlns:cc="http://creativecommons.org/ns#"
   xmlns:rdf="http://www.w3.org/1999/02/22-rdf-syntax-ns#"
   xmlns:svg="http://www.w3.org/2000/svg"
   xmlns="http://www.w3.org/2000/svg"
   xmlns:sodipodi="http://sodipodi.sourceforge.net/DTD/sodipodi-0.dtd"
   xmlns:inkscape="http://www.inkscape.org/namespaces/inkscape"
   id="Layer_1"
   data-name="Layer 1"
   viewBox="0 0 24 24"
   width="512"
   height="512"
   version="1.1"
   sodipodi:docname="memo-circle-check.svg"
   inkscape:version="0.92.4 (5da689c313, 2019-01-14)">
  <metadata
     id="metadata9">
    <rdf:RDF>
      <cc:Work
         rdf:about="">
        <dc:format>image/svg+xml</dc:format>
        <dc:type
           rdf:resource="http://purl.org/dc/dcmitype/StillImage" />
      </cc:Work>
    </rdf:RDF>
  </metadata>
  <defs
     id="defs7" />
  <sodipodi:namedview
     pagecolor="#ffffff"
     bordercolor="#666666"
     borderopacity="1"
     objecttolerance="10"
     gridtolerance="10"
     guidetolerance="10"
     inkscape:pageopacity="0"
     inkscape:pageshadow="2"
     inkscape:window-width="716"
     inkscape:window-height="480"
     id="namedview5"
     showgrid="false"
     inkscape:zoom="0.4609375"
     inkscape:cx="256"
     inkscape:cy="256"
     inkscape:window-x="0"
     inkscape:window-y="0"
     inkscape:window-maximized="0"
     inkscape:current-layer="Layer_1" />
  <path
     d="m10,23c0,.553-.447,1-1,1h-4c-2.757,0-5-2.243-5-5V5C0,2.243,2.243,0,5,0h8c2.757,0,5,2.243,5,5v2c0,.553-.447,1-1,1s-1-.447-1-1v-2c0-1.654-1.346-3-3-3H5c-1.654,0-3,1.346-3,3v14c0,1.654,1.346,3,3,3h4c.553,0,1,.447,1,1ZM14,6c0-.553-.447-1-1-1H5c-.553,0-1,.447-1,1s.447,1,1,1h8c.553,0,1-.447,1-1Zm-4,5c0-.553-.447-1-1-1h-4c-.553,0-1,.447-1,1s.447,1,1,1h4c.553,0,1-.447,1-1Zm-5,4c-.553,0-1,.447-1,1s.447,1,1,1h2c.553,0,1-.447,1-1s-.447-1-1-1h-2Zm19,2c0,3.859-3.141,7-7,7s-7-3.141-7-7,3.141-7,7-7,7,3.141,7,7Zm-2,0c0-2.757-2.243-5-5-5s-5,2.243-5,5,2.243,5,5,5,5-2.243,5-5Zm-3.192-1.241l-2.223,2.134c-.144.141-.379.144-.522.002l-1.131-1.108c-.396-.388-1.028-.382-1.414.014-.387.395-.381,1.027.014,1.414l1.132,1.109c.46.449,1.062.674,1.663.674s1.201-.225,1.653-.671l2.213-2.124c.398-.383.411-1.016.029-1.414-.383-.4-1.017-.411-1.414-.029Z"
     id="path2"
     style="fill:#f1f5f9;fill-opacity:1" />
</svg>
