<?xml version="1.0" encoding="UTF-8" standalone="no"?>
<svg
   xmlns:dc="http://purl.org/dc/elements/1.1/"
   xmlns:cc="http://creativecommons.org/ns#"
   xmlns:rdf="http://www.w3.org/1999/02/22-rdf-syntax-ns#"
   xmlns:svg="http://www.w3.org/2000/svg"
   xmlns="http://www.w3.org/2000/svg"
   xmlns:sodipodi="http://sodipodi.sourceforge.net/DTD/sodipodi-0.dtd"
   xmlns:inkscape="http://www.inkscape.org/namespaces/inkscape"
   id="Layer_1"
   data-name="Layer 1"
   viewBox="0 0 24 24"
   version="1.1"
   sodipodi:docname="thermometer-three-quarters.svg"
   inkscape:version="0.92.4 (5da689c313, 2019-01-14)">
  <metadata
     id="metadata9">
    <rdf:RDF>
      <cc:Work
         rdf:about="">
        <dc:format>image/svg+xml</dc:format>
        <dc:type
           rdf:resource="http://purl.org/dc/dcmitype/StillImage" />
      </cc:Work>
    </rdf:RDF>
  </metadata>
  <defs
     id="defs7" />
  <sodipodi:namedview
     pagecolor="#ffffff"
     bordercolor="#666666"
     borderopacity="1"
     objecttolerance="10"
     gridtolerance="10"
     guidetolerance="10"
     inkscape:pageopacity="0"
     inkscape:pageshadow="2"
     inkscape:window-width="716"
     inkscape:window-height="480"
     id="namedview5"
     showgrid="false"
     inkscape:zoom="9.8333333"
     inkscape:cx="12"
     inkscape:cy="12"
     inkscape:window-x="0"
     inkscape:window-y="0"
     inkscape:window-maximized="0"
     inkscape:current-layer="Layer_1" />
  <path
     d="m12.5,15.051v-7.551c0-.276-.224-.5-.5-.5s-.5.224-.5.5v7.551c-1.14.232-2,1.242-2,2.449,0,1.379,1.122,2.5,2.5,2.5s2.5-1.121,2.5-2.5c0-1.208-.86-2.217-2-2.449Zm-.5,3.949c-.827,0-1.5-.673-1.5-1.5s.673-1.5,1.5-1.5,1.5.673,1.5,1.5-.673,1.5-1.5,1.5Zm4.5-6.181V4.5c0-2.481-2.019-4.5-4.5-4.5s-4.5,2.019-4.5,4.5v8.319c-1.274,1.225-2,2.918-2,4.681,0,3.584,2.916,6.5,6.5,6.5s6.5-2.916,6.5-6.5c0-1.763-.726-3.456-2-4.681Zm-4.5,10.181c-3.033,0-5.5-2.468-5.5-5.5,0-1.554.668-3.045,1.834-4.091.105-.095.166-.23.166-.372V4.5c0-1.93,1.57-3.5,3.5-3.5s3.5,1.57,3.5,3.5v8.537c0,.142.061.277.166.372,1.166,1.046,1.834,2.537,1.834,4.091,0,3.032-2.467,5.5-5.5,5.5Z"
     id="path2"
     style="fill:#f1f5f9;fill-opacity:1" />
</svg>
