<?xml version="1.0" encoding="UTF-8" standalone="no"?>
<svg
   xmlns:dc="http://purl.org/dc/elements/1.1/"
   xmlns:cc="http://creativecommons.org/ns#"
   xmlns:rdf="http://www.w3.org/1999/02/22-rdf-syntax-ns#"
   xmlns:svg="http://www.w3.org/2000/svg"
   xmlns="http://www.w3.org/2000/svg"
   xmlns:sodipodi="http://sodipodi.sourceforge.net/DTD/sodipodi-0.dtd"
   xmlns:inkscape="http://www.inkscape.org/namespaces/inkscape"
   id="Layer_1"
   height="512"
   viewBox="0 0 24 24"
   width="512"
   data-name="Layer 1"
   version="1.1"
   sodipodi:docname="time-quarter-past.svg"
   inkscape:version="0.92.4 (5da689c313, 2019-01-14)">
  <metadata
     id="metadata9">
    <rdf:RDF>
      <cc:Work
         rdf:about="">
        <dc:format>image/svg+xml</dc:format>
        <dc:type
           rdf:resource="http://purl.org/dc/dcmitype/StillImage" />
      </cc:Work>
    </rdf:RDF>
  </metadata>
  <defs
     id="defs7" />
  <sodipodi:namedview
     pagecolor="#ffffff"
     bordercolor="#666666"
     borderopacity="1"
     objecttolerance="10"
     gridtolerance="10"
     guidetolerance="10"
     inkscape:pageopacity="0"
     inkscape:pageshadow="2"
     inkscape:window-width="716"
     inkscape:window-height="480"
     id="namedview5"
     showgrid="false"
     inkscape:zoom="0.4609375"
     inkscape:cx="256"
     inkscape:cy="256"
     inkscape:window-x="0"
     inkscape:window-y="0"
     inkscape:window-maximized="0"
     inkscape:current-layer="Layer_1" />
  <path
     d="m24 12a1 1 0 0 1 -2 0 10.011 10.011 0 0 0 -10-10 1 1 0 0 1 0-2 12.013 12.013 0 0 1 12 12zm-8 1a1 1 0 0 0 0-2h-2.277a2 2 0 0 0 -.723-.723v-3.277a1 1 0 0 0 -2 0v3.277a1.994 1.994 0 1 0 2.723 2.723zm-14.173-6.216a1 1 0 1 0 1 1 1 1 0 0 0 -1-1zm.173 5.216a1 1 0 1 0 -1 1 1 1 0 0 0 1-1zm10 10a1 1 0 1 0 1 1 1 1 0 0 0 -1-1zm-7.779-18.793a1 1 0 1 0 1 1 1 1 0 0 0 -1-1zm3.558-2.366a1 1 0 1 0 1 1 1 1 0 0 0 -1-1zm-5.952 14.375a1 1 0 1 0 1 1 1 1 0 0 0 -1-1zm2.394 3.577a1 1 0 1 0 1 1 1 1 0 0 0 -1-1zm3.558 2.366a1 1 0 1 0 1 1 1 1 0 0 0 -1-1zm14.394-5.943a1 1 0 1 0 1 1 1 1 0 0 0 -1-1zm-2.394 3.577a1 1 0 1 0 1 1 1 1 0 0 0 -1-1zm-3.558 2.366a1 1 0 1 0 1 1 1 1 0 0 0 -1-1z"
     id="path2"
     style="fill:#f1f5f9;fill-opacity:1" />
</svg>
