<?xml version="1.0" encoding="UTF-8" standalone="no"?>
<svg
   xmlns:dc="http://purl.org/dc/elements/1.1/"
   xmlns:cc="http://creativecommons.org/ns#"
   xmlns:rdf="http://www.w3.org/1999/02/22-rdf-syntax-ns#"
   xmlns:svg="http://www.w3.org/2000/svg"
   xmlns="http://www.w3.org/2000/svg"
   xmlns:sodipodi="http://sodipodi.sourceforge.net/DTD/sodipodi-0.dtd"
   xmlns:inkscape="http://www.inkscape.org/namespaces/inkscape"
   id="Outline"
   viewBox="0 0 24 24"
   width="512"
   height="512"
   version="1.1"
   sodipodi:docname="upload.svg"
   inkscape:version="0.92.4 (5da689c313, 2019-01-14)">
  <metadata
     id="metadata11">
    <rdf:RDF>
      <cc:Work
         rdf:about="">
        <dc:format>image/svg+xml</dc:format>
        <dc:type
           rdf:resource="http://purl.org/dc/dcmitype/StillImage" />
      </cc:Work>
    </rdf:RDF>
  </metadata>
  <defs
     id="defs9" />
  <sodipodi:namedview
     pagecolor="#ffffff"
     bordercolor="#666666"
     borderopacity="1"
     objecttolerance="10"
     gridtolerance="10"
     guidetolerance="10"
     inkscape:pageopacity="0"
     inkscape:pageshadow="2"
     inkscape:window-width="1366"
     inkscape:window-height="697"
     id="namedview7"
     showgrid="false"
     inkscape:zoom="0.4609375"
     inkscape:cx="-96.542373"
     inkscape:cy="256"
     inkscape:window-x="-8"
     inkscape:window-y="-8"
     inkscape:window-maximized="1"
     inkscape:current-layer="Outline" />
  <path
     d="M11.007,2.578,11,18.016a1,1,0,0,0,1,1h0a1,1,0,0,0,1-1l.007-15.421,2.912,2.913a1,1,0,0,0,1.414,0h0a1,1,0,0,0,0-1.414L14.122.879a3,3,0,0,0-4.244,0L6.667,4.091a1,1,0,0,0,0,1.414h0a1,1,0,0,0,1.414,0Z"
     id="path2"
     style="fill:#f1f5f9;fill-opacity:1;stroke:#f1f5f9;stroke-opacity:1;stroke-width:0.57342187;stroke-miterlimit:4;stroke-dasharray:none" />
  <path
     d="M22,17v4a1,1,0,0,1-1,1H3a1,1,0,0,1-1-1V17a1,1,0,0,0-1-1H1a1,1,0,0,0-1,1v4a3,3,0,0,0,3,3H21a3,3,0,0,0,3-3V17a1,1,0,0,0-1-1h0A1,1,0,0,0,22,17Z"
     id="path4"
     style="fill:#f1f5f9;fill-opacity:1;stroke:#f1f5f9;stroke-opacity:1;stroke-width:0.57342187;stroke-miterlimit:4;stroke-dasharray:none" />
</svg>
