<?xml version="1.0" encoding="UTF-8" standalone="no"?>
<svg
   xmlns:dc="http://purl.org/dc/elements/1.1/"
   xmlns:cc="http://creativecommons.org/ns#"
   xmlns:rdf="http://www.w3.org/1999/02/22-rdf-syntax-ns#"
   xmlns:svg="http://www.w3.org/2000/svg"
   xmlns="http://www.w3.org/2000/svg"
   xmlns:sodipodi="http://sodipodi.sourceforge.net/DTD/sodipodi-0.dtd"
   xmlns:inkscape="http://www.inkscape.org/namespaces/inkscape"
   id="Layer_1"
   data-name="Layer 1"
   viewBox="0 0 24 24"
   version="1.1"
   sodipodi:docname="water.svg"
   inkscape:version="0.92.4 (5da689c313, 2019-01-14)">
  <metadata
     id="metadata15">
    <rdf:RDF>
      <cc:Work
         rdf:about="">
        <dc:format>image/svg+xml</dc:format>
        <dc:type
           rdf:resource="http://purl.org/dc/dcmitype/StillImage" />
      </cc:Work>
    </rdf:RDF>
  </metadata>
  <defs
     id="defs13" />
  <sodipodi:namedview
     pagecolor="#ffffff"
     bordercolor="#666666"
     borderopacity="1"
     objecttolerance="10"
     gridtolerance="10"
     guidetolerance="10"
     inkscape:pageopacity="0"
     inkscape:pageshadow="2"
     inkscape:window-width="716"
     inkscape:window-height="480"
     id="namedview11"
     showgrid="false"
     inkscape:zoom="9.8333333"
     inkscape:cx="12"
     inkscape:cy="12"
     inkscape:window-x="0"
     inkscape:window-y="0"
     inkscape:window-maximized="0"
     inkscape:current-layer="Layer_1" />
  <path
     d="M22.5,19.044c-.854,0-1.654-.369-2.252-1.038-.189-.213-.557-.213-.746,0-1.195,1.338-3.309,1.338-4.504,0-.189-.213-.557-.213-.746,0-1.195,1.338-3.31,1.337-4.504,0-.189-.213-.557-.213-.746,0-1.195,1.338-3.309,1.338-4.504,0-.189-.213-.557-.213-.746,0-.598,.669-1.397,1.038-2.252,1.038-.276,0-.5,.224-.5,.5s.224,.5,.5,.5c.972,0,1.887-.353,2.625-1.001,1.476,1.297,3.774,1.297,5.25,0,1.476,1.297,3.774,1.299,5.25,0,1.477,1.299,3.773,1.299,5.25,0,.738,.649,1.653,1.002,2.625,1.002,.276,0,.5-.224,.5-.5s-.224-.5-.5-.5Z"
     id="path2"
     style="fill:#f1f5f9;fill-opacity:1" />
  <path
     d="M22.5,14.416c-.854,0-1.653-.368-2.252-1.037-.191-.213-.555-.213-.746,0-1.197,1.338-3.307,1.338-4.504,0-.191-.213-.555-.213-.746,0-1.197,1.338-3.309,1.337-4.504,0-.189-.213-.556-.213-.745,0-1.196,1.338-3.309,1.338-4.505,0-.189-.213-.556-.213-.745,0-.598,.669-1.398,1.037-2.252,1.037-.276,0-.5,.224-.5,.5s.224,.5,.5,.5c.972,0,1.887-.352,2.625-1.001,1.477,1.299,3.773,1.299,5.25,0,1.477,1.299,3.774,1.297,5.25,0,1.477,1.297,3.773,1.297,5.25,0,.738,.648,1.653,1.001,2.625,1.001,.276,0,.5-.224,.5-.5s-.224-.5-.5-.5Z"
     id="path4"
     style="fill:#f1f5f9;fill-opacity:1" />
  <path
     d="M22.5,9.788c-.854,0-1.653-.368-2.252-1.037-.191-.213-.555-.213-.746,0-1.197,1.338-3.307,1.338-4.504,0-.191-.213-.555-.213-.746,0-1.197,1.337-3.309,1.337-4.504,0-.189-.213-.556-.213-.745,0-1.196,1.338-3.309,1.338-4.505,0-.189-.213-.556-.213-.745,0-.598,.669-1.398,1.037-2.252,1.037-.276,0-.5,.224-.5,.5s.224,.5,.5,.5c.972,0,1.887-.352,2.625-1.001,1.477,1.299,3.773,1.299,5.25,0,1.477,1.299,3.774,1.298,5.25,0,1.477,1.297,3.773,1.297,5.25,0,.738,.648,1.653,1.001,2.625,1.001,.276,0,.5-.224,.5-.5s-.224-.5-.5-.5Z"
     id="path6"
     style="fill:#f1f5f9;fill-opacity:1" />
  <path
     d="M1.5,6.161c.971,0,1.887-.353,2.625-1.002,1.477,1.299,3.773,1.299,5.25,0,1.477,1.299,3.771,1.299,5.25,0,1.479,1.299,3.771,1.299,5.25,0,.739,.649,1.654,1.002,2.625,1.002,.276,0,.5-.224,.5-.5s-.224-.5-.5-.5c-.854,0-1.653-.369-2.252-1.038-.191-.213-.555-.213-.746,0-1.197,1.338-3.307,1.338-4.504,0-.191-.213-.555-.213-.746,0-1.197,1.338-3.307,1.338-4.504,0-.189-.213-.556-.213-.745,0-1.197,1.338-3.308,1.338-4.505,0-.189-.213-.556-.213-.745,0-.599,.669-1.399,1.038-2.252,1.038-.276,0-.5,.224-.5,.5s.224,.5,.5,.5Z"
     id="path8"
     style="fill:#f1f5f9;fill-opacity:1" />
</svg>
